<?xml version="1.0" encoding="utf-8"?>
<!-- Generator: Adobe Illustrator 27.5.0, SVG Export Plug-In . SVG Version: 6.00 Build 0)  -->
<svg version="1.1" xmlns="http://www.w3.org/2000/svg" xmlns:xlink="http://www.w3.org/1999/xlink" x="0px" y="0px"
	 viewBox="0 0 750 500" style="enable-background:new 0 0 750 500;" xml:space="preserve">
<g id="BACKGROUND">
</g>
<g id="OBJECTS">
	<g>
		<defs>
			<rect id="SVGID_1_" width="750" height="500"/>
		</defs>
		<clipPath id="SVGID_00000123439833773128695590000007611993551598977179_">
			<use xlink:href="#SVGID_1_"  style="overflow:visible;"/>
		</clipPath>
		<g style="clip-path:url(#SVGID_00000123439833773128695590000007611993551598977179_);">
			<polygon style="fill:#113C52;" points="-17.14,376.388 113.36,294.055 158.86,438.43 			"/>
			<polygon style="fill:#103451;" points="-14.64,376.055 158.36,438.055 42.36,558.055 			"/>
			<polygon style="fill:#249597;" points="113.36,294.055 200.36,392.055 158.36,438.055 			"/>
			<polygon style="fill:#196576;" points="113.36,294.055 155.36,266.055 200.36,392.055 			"/>
			<polygon style="fill:#91CBC7;" points="155.36,266.055 240.36,360.055 200.36,392.055 			"/>
			<polygon style="fill:#C0DFDC;" points="155.36,266.055 260.36,323.055 240.36,360.055 			"/>
			<polygon style="fill:#103758;" points="-11.64,264.055 113.36,294.055 -14.64,376.055 			"/>
			<polygon style="fill:#5EBBB8;" points="-11.64,264.055 72.193,254.722 113.36,294.055 			"/>
			<polygon style="fill:#5EBBB8;" points="14.86,157.805 72.36,255.055 -0.973,233.722 			"/>
			<path style="fill:#5EBBB8;" d="M200.36,392.055"/>
			<polygon style="fill:#5EBBB8;" points="240.36,360.055 322.36,354.388 260.36,323.055 			"/>
			<polygon style="fill:#5EBBB8;" points="245.693,431.722 158.36,438.055 200.36,392.055 			"/>
			<polygon style="fill:#2DA6A4;" points="200.36,392.055 240.36,360.055 245.709,431.753 			"/>
			<polygon style="fill:#91CBC7;" points="240.36,360.055 291.36,428.055 322.36,354.388 			"/>
			<polygon style="fill:#73B6BE;" points="240.36,360.055 245.693,431.722 291.36,428.055 			"/>
			<polygon style="fill:#A6D3D6;" points="322.36,354.388 291.36,428.055 429.027,453.722 			"/>
			<polygon style="fill:#2DA6A4;" points="291.36,428.055 272.36,541.055 429.027,453.722 			"/>
			<polygon style="fill:#C0DFDC;" points="322.36,354.388 425.693,365.722 429.027,453.722 			"/>
			<polygon style="fill:#E0E8EC;" points="322.36,354.388 413.36,344.055 425.693,365.722 			"/>
			<polygon style="fill:#2DA6A4;" points="-8.64,118.055 72.36,255.055 94.86,156.055 			"/>
			<polygon style="fill:#C0DFDC;" points="94.86,156.055 155.36,266.055 72.36,255.055 			"/>
			<polygon style="fill:#2DA6A4;" points="72.36,255.055 155.36,266.055 113.36,294.055 			"/>
			<polygon style="fill:#D6E5E6;" points="155.36,266.055 94.86,156.055 192.36,180.055 			"/>
			<polygon style="fill:#B7D5D4;" points="192.36,180.055 260.36,323.055 155.36,266.055 			"/>
			<polygon style="fill:#E6EDEA;" points="260.36,323.055 378.36,296.055 322.36,354.388 			"/>
			<polygon style="fill:#F4F1F4;" points="378.36,296.055 413.36,344.055 322.36,354.388 			"/>
			<polygon style="fill:#B7D5D4;" points="192.36,180.055 222.36,70.055 94.86,156.055 			"/>
			<polygon style="fill:#B7D5D4;" points="-8.64,118.055 49.36,33.055 94.86,156.055 			"/>
			<polygon style="fill:#103451;" points="215.36,523.055 245.36,479.055 272.36,541.055 			"/>
			<polyline style="fill:#249597;" points="429.027,453.722 272.36,541.055 429.027,557.722 426.36,455.055 429.027,557.722 			"/>
			<polygon style="fill:#103451;" points="429.027,557.722 487.693,489.722 570.36,506.388 			"/>
			<polygon style="fill:#196576;" points="158.36,438.055 245.36,479.055 185.36,573.055 			"/>
			<polygon style="fill:#C0DFDC;" points="158.36,438.055 245.693,431.722 245.36,479.055 			"/>
			<polygon style="fill:#E0E8EC;" points="-8.64,118.055 49.36,33.055 -12.64,-9.945 			"/>
			<polygon style="fill:#C0DFDC;" points="49.36,33.055 222.36,70.055 94.86,156.055 			"/>
			<polygon style="fill:#91CBC7;" points="49.36,33.055 111.464,-22.841 222.36,70.055 			"/>
			<polygon style="fill:#249597;" points="158.86,437.805 188.11,573.055 42.36,558.055 			"/>
			<polygon style="fill:#249597;" points="245.36,479.055 291.36,428.055 245.693,431.722 			"/>
			<polygon style="fill:#F4F1F4;" points="192.36,180.055 378.36,296.055 260.36,323.055 			"/>
			<polygon style="fill:#F4F1F4;" points="-12.64,-9.945 49.36,33.055 111.464,-22.841 			"/>
			<polygon style="fill:#91CBC7;" points="245.36,479.055 272.36,541.055 291.36,428.055 			"/>
			<path style="fill:#249597;" d="M460.86,439.055"/>
			<polygon style="fill:#A6D3D6;" points="425.693,365.722 536.36,414.805 429.027,453.722 			"/>
			<polygon style="fill:#E6EDEA;" points="560.36,257.722 425.693,365.722 536.36,414.805 			"/>
			<polygon style="fill:#F4F1F4;" points="413.36,344.055 560.36,257.722 425.693,365.722 			"/>
			<polygon style="fill:#C0DFDC;" points="536.36,414.805 590.36,388.388 560.36,257.722 			"/>
			<polygon style="fill:#F4F1F4;" points="560.36,257.722 689.693,389.055 590.36,388.388 			"/>
			<polygon style="fill:#C0DFDC;" points="590.36,388.388 696.36,466.055 689.693,389.055 			"/>
			<polygon style="fill:#73B6BE;" points="536.36,414.805 487.693,489.722 429.027,453.722 			"/>
			<polygon style="fill:#249597;" points="570.36,506.388 487.693,489.722 536.36,414.805 			"/>
			<polygon style="fill:#196576;" points="429.027,557.722 429.027,453.722 487.693,489.722 			"/>
			<polygon style="fill:#A6D3D6;" points="536.36,414.805 545.11,439.555 570.36,506.388 590.36,388.388 			"/>
			<polygon style="fill:#73B6BE;" points="696.36,466.055 570.36,506.388 590.36,388.388 			"/>
			<polygon style="fill:#F4F1F4;" points="689.693,389.055 834.36,409.055 696.36,466.055 			"/>
			<polygon style="fill:#E6EDEA;" points="696.36,466.055 680.36,525.722 748.36,549.722 834.36,409.055 			"/>
			<polygon style="fill:#A6D3D6;" points="570.36,506.388 671.693,558.388 696.36,466.055 			"/>
			<polygon style="fill:#196576;" points="-9.307,230.722 72.36,255.055 -11.64,264.055 			"/>
			<polyline style="fill:#113C52;" points="42.36,558.055 -53.64,554.388 -13.973,367.055 42.36,560.388 			"/>
			<polygon style="fill:#91CBC7;" points="-8.64,118.055 14.86,157.805 -0.64,233.055 -27.973,224.888 			"/>
			<polygon style="fill:#113C52;" points="429.027,557.722 671.693,558.388 570.36,506.388 			"/>
			<polygon style="fill:#E6EDEA;" points="415.36,330.055 393.36,292.055 474.36,288.055 			"/>
			<polygon style="fill:#E6EDEA;" points="690.435,347.641 642.437,223.147 739.932,292.143 			"/>
			<polygon style="fill:#F4F1F4;" points="741.36,192.055 740.36,218.055 708.36,203.055 			"/>
			<polygon style="fill:#E6EDEA;" points="210.36,171.722 240.457,65.655 298.954,92.653 			"/>
			<polygon style="fill:#F4F1F4;" points="603.36,242.055 623.36,292.055 577.94,253.145 			"/>
			<polygon style="fill:#F4F1F4;" points="725.36,187.055 770.36,169.055 746.36,153.055 			"/>
			<polygon style="fill:#F4F1F4;" points="155.36,-31.111 237.36,38.556 273.36,-31.111 			"/>
			<polygon style="fill:#F4F1F4;" points="404.447,268.895 444.945,256.895 426.86,234.972 			"/>
			<polygon style="fill:#F4F1F4;" points="274.956,128.652 307.954,95.653 352.952,112.152 			"/>
			<polygon style="fill:#F4F1F4;" points="212.36,179.055 362.36,199.722 343.693,240.388 			"/>
		</g>
	</g>
	<g>
		<defs>
			<rect id="SVGID_00000093868353601257282300000004954489834486064036_" width="750" height="500"/>
		</defs>
		<clipPath id="SVGID_00000118384533326173749000000015456901283153689022_">
			<use xlink:href="#SVGID_00000093868353601257282300000004954489834486064036_"  style="overflow:visible;"/>
		</clipPath>
		<g style="clip-path:url(#SVGID_00000118384533326173749000000015456901283153689022_);">
			
				<polygon style="fill:none;stroke:#103451;stroke-width:0.5;stroke-linecap:round;stroke-linejoin:round;stroke-miterlimit:10;" points="
				-29.529,86.654 61.966,116.652 49.36,33.055 			"/>
			
				<polygon style="fill:none;stroke:#103451;stroke-width:0.5;stroke-linecap:round;stroke-linejoin:round;stroke-miterlimit:10;" points="
				60.556,115.242 138.36,93.055 94.86,156.055 			"/>
			
				<polygon style="fill:none;stroke:#103451;stroke-width:0.5;stroke-linecap:round;stroke-linejoin:round;stroke-miterlimit:10;" points="
				49.36,33.055 222.36,70.055 111.464,-22.841 			"/>
			<path style="fill:#103451;" d="M47.974,31.621c0.779-0.779,2.042-0.779,2.82,0c0.779,0.779,0.779,2.041,0,2.82
				c-0.779,0.779-2.041,0.779-2.82,0C47.195,33.663,47.195,32.4,47.974,31.621z"/>
			<path style="fill:#103451;" d="M59.146,113.832c0.779-0.779,2.042-0.779,2.82,0c0.779,0.779,0.779,2.041,0,2.82
				c-0.779,0.779-2.041,0.779-2.82,0C58.367,115.873,58.367,114.611,59.146,113.832z"/>
			<circle style="fill:#103451;" cx="94.86" cy="156.055" r="1.994"/>
			<path style="fill:#103451;" d="M240.54,49.055c0.779-0.779,2.041-0.779,2.82,0c0.779,0.779,0.779,2.041,0,2.82
				c-0.779,0.779-2.041,0.779-2.82,0C239.761,51.096,239.761,49.834,240.54,49.055z"/>
			<path style="fill:#103451;" d="M297.027,52.235c0.779-0.779,2.041-0.779,2.82,0c0.779,0.779,0.779,2.041,0,2.82
				c-0.779,0.779-2.041,0.779-2.82,0C296.248,54.276,296.248,53.014,297.027,52.235z"/>
			<circle style="fill:#103451;" cx="312.622" cy="111.126" r="1.209"/>
			<path style="fill:#103451;" d="M609.873,333.388c0.779-0.779,2.041-0.779,2.82,0c0.779,0.779,0.779,2.041,0,2.82
				c-0.779,0.779-2.041,0.779-2.82,0C609.094,335.43,609.094,334.167,609.873,333.388z"/>
			<path style="fill:#103451;" d="M688.54,387.735c0.779-0.779,2.041-0.779,2.82,0c0.779,0.779,0.779,2.041,0,2.82
				c-0.779,0.779-2.041,0.779-2.82,0C687.761,389.776,687.761,388.514,688.54,387.735z"/>
			<path style="fill:#103451;" d="M534.54,413.388c0.779-0.779,2.041-0.779,2.82,0c0.779,0.779,0.779,2.041,0,2.82
				s-2.041,0.779-2.82,0C533.761,415.43,533.761,414.167,534.54,413.388z"/>
			<path style="fill:#103451;" d="M190.54,178.055c0.779-0.779,2.041-0.779,2.82,0c0.779,0.779,0.779,2.041,0,2.82
				c-0.779,0.779-2.041,0.779-2.82,0C189.761,180.096,189.761,178.834,190.54,178.055z"/>
			<path style="fill:#103451;" d="M13.54,156.235c0.779-0.779,2.041-0.779,2.82,0c0.779,0.779,0.779,2.041,0,2.82
				c-0.779,0.779-2.041,0.779-2.82,0C12.761,158.276,12.761,157.014,13.54,156.235z"/>
			<path style="fill:#103451;" d="M275.283,12.645c0.779-0.779,2.042-0.779,2.82,0c0.779,0.779,0.779,2.041,0,2.82
				c-0.779,0.779-2.041,0.779-2.82,0C274.504,14.686,274.504,13.424,275.283,12.645z"/>
			<path style="fill:#103451;" d="M80.04,216.735c0.779-0.779,2.041-0.779,2.82,0c0.779,0.779,0.779,2.041,0,2.82
				c-0.779,0.779-2.041,0.779-2.82,0C79.261,218.776,79.261,217.514,80.04,216.735z"/>
			<circle style="fill:#103451;" cx="222.36" cy="70.055" r="1.994"/>
			<path style="fill:#103451;" d="M342.68,200.625c0.779-0.779,2.041-0.779,2.82,0c0.779,0.779,0.779,2.041,0,2.82
				c-0.779,0.779-2.041,0.779-2.82,0C341.901,202.667,341.901,201.404,342.68,200.625z"/>
			<path style="fill:#103451;" d="M349.617,260.978c0.779-0.779,2.041-0.779,2.82,0c0.779,0.779,0.779,2.042,0,2.82
				c-0.779,0.779-2.042,0.779-2.82,0C348.838,263.02,348.838,261.757,349.617,260.978z"/>
			<path style="fill:#103451;" d="M199.165,390.36c0.779-0.779,2.041-0.779,2.82,0c0.779,0.779,0.779,2.041,0,2.82
				c-0.779,0.779-2.041,0.779-2.82,0C198.386,392.401,198.386,391.139,199.165,390.36z"/>
			<path style="fill:#103451;" d="M424.193,364.068c0.779-0.779,2.041-0.779,2.82,0c0.779,0.779,0.779,2.041,0,2.82
				c-0.779,0.779-2.041,0.779-2.82,0C423.415,366.11,423.415,364.847,424.193,364.068z"/>
			<path style="fill:#103451;" d="M320.95,352.978c0.779-0.779,2.041-0.779,2.82,0c0.779,0.779,0.779,2.042,0,2.82
				c-0.779,0.779-2.041,0.779-2.82,0C320.171,355.02,320.171,353.757,320.95,352.978z"/>
			<circle style="fill:#103451;" cx="154.783" cy="265.351" r="2.791"/>
			<circle style="fill:#103451;" cx="240.033" cy="360.601" r="2.791"/>
			<path style="fill:#103451;" d="M329.04,239.125c0.779-0.779,2.041-0.779,2.82,0c0.779,0.779,0.779,2.041,0,2.82
				c-0.779,0.779-2.041,0.779-2.82,0C328.261,241.167,328.261,239.904,329.04,239.125z"/>
			<path style="fill:#103451;" d="M376.286,282.754c0.489-0.489,1.282-0.489,1.771,0c0.489,0.489,0.489,1.282,0,1.771
				c-0.489,0.489-1.282,0.489-1.771,0C375.797,284.036,375.797,283.243,376.286,282.754z"/>
			<path style="fill:#103451;" d="M382.589,225.034c0.489-0.489,1.282-0.489,1.771,0s0.489,1.282,0,1.771
				c-0.489,0.489-1.282,0.489-1.771,0C382.1,226.316,382.1,225.523,382.589,225.034z"/>
			<circle style="fill:#103451;" cx="378.141" cy="295.941" r="1.252"/>
			<circle style="fill:#103451;" cx="260.474" cy="322.941" r="1.252"/>
			<path style="fill:#103451;" d="M482.589,220.722c0.489-0.489,1.282-0.489,1.771,0c0.489,0.489,0.489,1.282,0,1.771
				s-1.282,0.489-1.771,0C482.1,222.004,482.1,221.211,482.589,220.722z"/>
			<path style="fill:#103451;" d="M559.36,257.284c0.489-0.489,1.282-0.489,1.771,0c0.489,0.489,0.489,1.282,0,1.771
				c-0.489,0.489-1.282,0.489-1.771,0S558.871,257.773,559.36,257.284z"/>
			<path style="fill:#103451;" d="M441.589,392.284c0.489-0.489,1.282-0.489,1.771,0c0.489,0.489,0.489,1.282,0,1.771
				s-1.282,0.489-1.771,0C441.1,393.566,441.1,392.773,441.589,392.284z"/>
			<circle style="fill:#103451;" cx="138.36" cy="93.055" r="1.994"/>
			
				<polyline style="fill:none;stroke:#103451;stroke-width:0.5;stroke-linecap:round;stroke-linejoin:round;stroke-miterlimit:10;" points="
				-26.14,111.555 94.86,156.055 72.36,255.055 -49.14,218.555 			"/>
			
				<polyline style="fill:none;stroke:#103451;stroke-width:0.5;stroke-linecap:round;stroke-linejoin:round;stroke-miterlimit:10;" points="
				383.36,226.055 351.027,262.388 377.36,284.055 344.36,201.055 330.36,241.055 260.36,323.055 155.36,266.055 94.86,156.055 
				222.36,70.055 241.86,50.555 298.36,54.055 312.36,110.388 			"/>
			
				<polygon style="fill:none;stroke:#103451;stroke-width:0.5;stroke-linecap:round;stroke-linejoin:round;stroke-miterlimit:10;" points="
				155.36,266.055 113.36,294.055 200.36,392.055 			"/>
			
				<polyline style="fill:none;stroke:#103451;stroke-width:0.5;stroke-linecap:round;stroke-linejoin:round;stroke-miterlimit:10;" points="
				113.36,294.055 72.36,255.055 155.36,266.055 192.36,180.055 222.36,70.055 			"/>
			
				<polygon style="fill:none;stroke:#103451;stroke-width:0.5;stroke-linecap:round;stroke-linejoin:round;stroke-miterlimit:10;" points="
				200.36,392.055 240.36,360.055 245.693,431.722 			"/>
			
				<line style="fill:none;stroke:#103451;stroke-width:0.5;stroke-linecap:round;stroke-linejoin:round;stroke-miterlimit:10;" x1="241.86" y1="50.555" x2="276.693" y2="14.055"/>
			
				<polyline style="fill:none;stroke:#103451;stroke-width:0.5;stroke-linecap:round;stroke-linejoin:round;stroke-miterlimit:10;" points="
				-0.973,233.722 14.86,157.805 80.86,218.055 155.36,266.055 240.36,360.055 322.36,354.388 429.027,453.722 			"/>
			
				<polyline style="fill:none;stroke:#103451;stroke-width:0.5;stroke-linecap:round;stroke-linejoin:round;stroke-miterlimit:10;" points="
				49.384,33.031 94.86,156.055 192.36,180.055 			"/>
			
				<line style="fill:none;stroke:#103451;stroke-width:0.5;stroke-linecap:round;stroke-linejoin:round;stroke-miterlimit:10;" x1="80.86" y1="218.055" x2="192.36" y2="180.055"/>
			<path style="fill:#103451;" d="M200.36,392.055"/>
			
				<polyline style="fill:none;stroke:#103451;stroke-width:0.5;stroke-linecap:round;stroke-linejoin:round;stroke-miterlimit:10;" points="
				200.36,392.055 158.36,438.055 40.61,559.805 			"/>
			
				<polyline style="fill:none;stroke:#103451;stroke-width:0.5;stroke-linecap:round;stroke-linejoin:round;stroke-miterlimit:10;" points="
				483.693,221.722 505.36,250.055 531.693,258.388 560.36,257.722 425.693,365.722 429.027,453.722 291.36,428.055 240.36,360.055 
				260.36,323.055 192.36,180.055 330.36,241.055 			"/>
			
				<polyline style="fill:none;stroke:#103451;stroke-width:0.5;stroke-linecap:round;stroke-linejoin:round;stroke-miterlimit:10;" points="
				425.693,365.722 322.36,354.388 291.36,428.055 245.693,431.722 			"/>
			<path style="fill:#103451;" d="M504.485,248.784c0.489-0.489,1.282-0.489,1.771,0s0.489,1.282,0,1.771
				c-0.489,0.489-1.282,0.489-1.771,0C503.996,250.066,503.996,249.273,504.485,248.784z"/>
			<path style="fill:#103451;" d="M531.089,257.055c0.489-0.489,1.282-0.489,1.771,0s0.489,1.282,0,1.771s-1.282,0.489-1.771,0
				C530.6,258.337,530.6,257.544,531.089,257.055z"/>
			<path style="fill:#103451;" d="M514.339,216.034c0.489-0.489,1.282-0.489,1.771,0s0.489,1.282,0,1.771
				c-0.489,0.489-1.282,0.489-1.771,0C513.85,217.316,513.85,216.523,514.339,216.034z"/>
			<circle style="fill:#103451;" cx="460.36" cy="275.555" r="1.252"/>
			<path style="fill:#103451;" d="M412.589,343.284c0.489-0.489,1.282-0.489,1.771,0c0.489,0.489,0.489,1.282,0,1.771
				s-1.282,0.489-1.771,0C412.1,344.566,412.1,343.773,412.589,343.284z"/>
			
				<polygon style="fill:none;stroke:#103451;stroke-width:0.5;stroke-linecap:round;stroke-linejoin:round;stroke-miterlimit:10;" points="
				413.36,344.055 322.36,354.388 442.36,393.055 			"/>
			
				<polygon style="fill:none;stroke:#103451;stroke-width:0.5;stroke-linecap:round;stroke-linejoin:round;stroke-miterlimit:10;" points="
				560.36,257.722 536.36,414.805 590.36,388.388 			"/>
			
				<polyline style="fill:none;stroke:#103451;stroke-width:0.5;stroke-linecap:round;stroke-linejoin:round;stroke-miterlimit:10;" points="
				515.36,217.055 460.36,275.555 425.693,365.722 536.36,414.805 611.36,335.055 560.36,257.722 689.693,389.055 			"/>
			
				<polyline style="fill:none;stroke:#103451;stroke-width:0.5;stroke-linecap:round;stroke-linejoin:round;stroke-miterlimit:10;" points="
				590.36,388.388 570.36,506.388 696.36,466.055 			"/>
			<path style="fill:#103451;" d="M589.474,387.503c0.489-0.489,1.282-0.489,1.771,0c0.489,0.489,0.489,1.282,0,1.771
				c-0.489,0.489-1.282,0.489-1.771,0C588.985,388.785,588.985,387.992,589.474,387.503z"/>
			
				<polyline style="fill:none;stroke:#103451;stroke-width:0.5;stroke-linecap:round;stroke-linejoin:round;stroke-miterlimit:10;" points="
				710.36,358.388 689.693,389.055 696.36,466.055 590.36,388.388 689.693,389.055 834.36,409.055 			"/>
			<path style="fill:#103451;" d="M709.474,357.503c0.489-0.489,1.282-0.489,1.771,0c0.489,0.489,0.489,1.282,0,1.771
				c-0.489,0.489-1.282,0.489-1.771,0C708.985,358.785,708.985,357.992,709.474,357.503z"/>
			<path style="fill:#103451;" d="M704.141,309.503c0.489-0.489,1.282-0.489,1.771,0c0.489,0.489,0.489,1.282,0,1.771
				c-0.489,0.489-1.282,0.489-1.771,0C703.652,310.785,703.652,309.992,704.141,309.503z"/>
			<circle style="fill:#103451;" cx="655.287" cy="328.941" r="1.252"/>
			<path style="fill:#103451;" d="M428.089,452.784c0.489-0.489,1.282-0.489,1.771,0c0.489,0.489,0.489,1.282,0,1.771
				s-1.282,0.489-1.771,0C427.6,454.066,427.6,453.273,428.089,452.784z"/>
			
				<polyline style="fill:none;stroke:#103451;stroke-width:0.5;stroke-linecap:round;stroke-linejoin:round;stroke-miterlimit:10;" points="
				322.36,354.388 378.36,296.055 260.36,323.055 			"/>
			
				<polyline style="fill:none;stroke:#103451;stroke-width:0.5;stroke-linecap:round;stroke-linejoin:round;stroke-miterlimit:10;" points="
				710.36,358.388 655.027,329.055 705.027,310.388 			"/>
			<circle style="fill:#103451;" cx="245.808" cy="431.503" r="1.252"/>
			<circle style="fill:#103451;" cx="158.724" cy="438.169" r="1.252"/>
		</g>
	</g>
</g>
</svg>
